<svg version="1.0" xmlns="http://www.w3.org/2000/svg"
 width="512.000000pt" height="512.000000pt" viewBox="0 0 512.000000 512.000000"
 preserveAspectRatio="xMidYMid meet">
    <style>
        path { fill: #000; }
        @media (prefers-color-scheme: dark) {
        path { fill: #FFF; }
        }
    </style>
<g transform="translate(0.000000,512.000000) scale(0.100000,-0.100000)">
<path d="M1109 4773 c-184 -192 -409 -424 -500 -518 -91 -93 -265 -273 -387
-400 l-221 -230 -1 -1050 0 -1050 98 -111 c96 -110 373 -419 522 -584 43 -47
97 -108 121 -136 24 -28 81 -91 125 -140 107 -117 364 -403 437 -487 l58 -67
1257 0 1257 0 168 228 c92 125 193 261 225 303 31 42 129 175 217 295 88 120
239 324 335 453 97 130 204 275 238 322 l62 86 -7 963 -6 962 -52 57 c-28 31
-71 79 -95 107 -25 28 -187 208 -360 399 -173 192 -330 367 -349 389 -19 23
-69 77 -110 122 -42 44 -147 160 -234 257 l-158 177 -1153 0 -1153 0 -334
-347z m3278 -443 l658 -731 6 -287 c3 -158 8 -584 9 -947 l3 -660 -191 -260
c-106 -143 -254 -343 -329 -445 -75 -102 -197 -268 -271 -370 -213 -292 -353
-481 -395 -533 l-39 -47 -1222 0 -1222 0 -100 112 c-103 116 -337 376 -523
583 -60 66 -207 230 -327 365 -121 134 -256 285 -302 334 l-82 90 0 1036 0
1037 211 219 c117 120 330 341 473 489 144 149 365 377 492 507 l229 238 1132
0 1131 0 659 -730z"/>
<path d="M1435 4927 c-67 -73 -546 -569 -601 -622 -29 -27 -110 -111 -180
-185 -71 -74 -219 -228 -330 -342 l-201 -207 -6 -458 c-4 -252 -8 -699 -8
-994 -1 -493 0 -539 16 -563 10 -15 24 -30 31 -34 7 -4 39 -37 71 -74 32 -36
159 -177 283 -312 124 -136 261 -287 305 -335 44 -49 195 -216 335 -370 l254
-281 1191 0 1191 0 147 198 c81 108 222 299 314 423 93 125 281 378 418 564
138 185 261 352 274 371 l23 34 -7 906 -8 907 -51 57 c-28 31 -127 142 -221
246 -93 104 -244 270 -335 370 -91 100 -215 238 -276 305 -61 68 -175 195
-254 282 l-142 157 -1097 0 -1096 0 -40 -43z m2238 -44 c18 -21 124 -138 235
-261 112 -123 202 -225 200 -226 -1 -1 -17 -8 -35 -15 -39 -16 -135 -128 -170
-199 -46 -94 -10 -172 79 -172 59 0 116 37 192 127 67 77 79 106 50 117 -21 8
-63 -25 -109 -85 -50 -66 -87 -91 -127 -87 -29 3 -33 7 -36 36 -4 42 24 89
103 172 35 36 64 71 67 79 2 8 32 -19 73 -65 38 -44 98 -111 134 -149 82 -87
379 -417 486 -539 l80 -91 3 -575 c1 -316 5 -713 8 -881 l7 -305 -48 -64 c-52
-67 -63 -66 -64 3 -1 15 -5 35 -11 45 -5 9 -16 42 -24 72 -21 75 -31 88 -53
74 -18 -11 -47 -106 -61 -199 l-7 -50 -60 4 c-33 2 -62 5 -65 8 -3 2 15 42 39
87 54 102 51 116 -21 116 -60 0 -101 -17 -106 -44 -3 -16 2 -17 52 -11 31 4
56 4 56 0 0 -4 -18 -44 -40 -88 -24 -47 -40 -92 -38 -107 3 -25 3 -25 88 -21
47 2 87 6 90 10 3 4 13 10 22 14 11 4 19 22 23 51 7 43 9 46 36 46 16 0 31 -6
33 -13 16 -59 23 -72 40 -69 16 3 16 1 5 -15 -19 -26 -351 -476 -886 -1200
l-157 -213 -1160 0 -1161 1 -160 176 c-172 190 -374 411 -513 562 -48 52 -111
122 -141 155 -29 34 -70 79 -90 101 -20 22 -81 90 -136 150 -54 61 -120 133
-146 160 -26 28 -57 62 -68 76 -20 26 -20 32 -14 996 l6 969 211 215 c116 119
321 330 456 470 135 140 324 335 420 433 96 98 191 196 210 216 l35 38 1068 1
1068 1 32 -37z m1067 -3110 c0 -16 -5 -20 -19 -16 -11 3 -18 11 -15 19 15 50
15 49 24 34 6 -8 10 -25 10 -37z"/>
<path d="M2055 4881 c-6 -28 -7 -29 -35 -14 -16 8 -32 18 -35 24 -4 5 -15 9
-25 9 -15 0 -19 -11 -25 -62 -3 -35 -5 -115 -3 -178 3 -107 4 -115 23 -115 19
0 20 8 23 138 1 75 7 137 12 137 4 0 22 -12 39 -26 l31 -26 0 -109 c0 -91 3
-111 16 -116 27 -10 32 15 29 127 -2 58 0 111 3 117 7 10 46 33 56 33 3 0 7
-62 8 -137 3 -130 4 -138 23 -138 19 0 20 8 23 171 2 140 0 173 -12 183 -12
10 -19 8 -35 -8 -18 -18 -54 -41 -65 -41 -2 0 -7 14 -11 30 -8 38 -31 39 -40
1z"/>
<path d="M2590 4869 c-64 -26 -73 -69 -49 -236 13 -89 25 -110 52 -91 15 11
16 20 7 67 -5 30 -8 56 -6 59 14 13 63 -14 108 -59 48 -48 77 -58 86 -31 2 6
-21 36 -52 66 l-55 54 34 27 c43 32 53 66 30 101 -29 45 -100 65 -155 43z m85
-49 c42 -16 30 -50 -28 -79 -56 -27 -70 -21 -65 30 2 24 10 37 28 46 30 15 32
16 65 3z"/>
<path d="M2848 4873 c-1 -4 -2 -62 -2 -128 -1 -78 -6 -131 -15 -153 -11 -25
-11 -36 -2 -45 19 -19 45 5 58 54 12 48 15 209 4 249 -6 23 -39 41 -43 23z"/>
<path d="M2330 4838 c-28 -45 -79 -207 -82 -260 -3 -37 0 -43 17 -43 16 0 23
12 35 58 l14 57 51 0 c63 0 71 -6 80 -52 9 -48 27 -64 48 -43 12 12 13 22 5
51 -5 20 -7 42 -4 49 2 7 -2 22 -9 33 -8 10 -24 46 -36 78 -30 81 -47 104 -75
104 -17 0 -31 -10 -44 -32z m59 -60 c4 -13 11 -35 15 -50 6 -26 4 -28 -27 -28
-19 0 -36 3 -40 6 -7 8 25 94 35 94 5 0 12 -10 17 -22z"/>
<path d="M3030 4833 c-29 -37 -45 -78 -76 -189 -26 -98 -25 -114 6 -114 14 0
21 14 32 57 15 64 23 69 93 59 41 -7 43 -9 54 -52 10 -38 15 -45 34 -42 17 2
21 9 19 28 -1 14 -3 41 -5 61 -1 20 -7 42 -13 50 -6 8 -23 43 -38 79 -41 95
-68 111 -106 63z m63 -95 c18 -43 14 -48 -30 -41 -38 6 -39 10 -18 60 17 41
25 37 48 -19z"/>
<path d="M3560 4750 c0 -56 4 -54 -92 -50 -47 1 -58 -1 -58 -14 0 -13 13 -16
75 -16 l75 0 0 -80 c0 -64 3 -80 15 -80 12 0 15 16 15 80 l0 80 71 0 c52 0 70
3 66 13 -2 7 -23 13 -48 13 -96 3 -89 -1 -89 54 0 38 -4 50 -15 50 -11 0 -15
-12 -15 -50z"/>
<path d="M3476 4782 c-8 -13 29 -72 44 -72 22 0 18 22 -8 51 -19 22 -31 28
-36 21z"/>
<path d="M3656 4756 c-28 -23 -36 -35 -27 -40 8 -5 25 3 44 20 18 16 34 30 36
32 3 1 0 7 -5 12 -6 6 -24 -3 -48 -24z"/>
<path d="M1409 4739 c-6 -13 -9 -48 -7 -84 5 -83 42 -139 113 -171 44 -20 55
-22 93 -12 49 12 92 59 92 101 0 41 -36 36 -54 -7 -15 -36 -67 -63 -99 -50
-22 8 -21 17 2 38 25 23 55 91 48 110 -8 21 -36 20 -44 -1 -9 -25 -57 -93 -65
-93 -28 -1 -50 124 -26 148 8 8 8 15 -2 27 -18 21 -37 19 -51 -6z"/>
<path d="M3615 4630 c-10 -17 71 -98 85 -84 7 7 -4 24 -34 53 -30 29 -46 39
-51 31z"/>
<path d="M3481 4596 c-22 -23 -29 -36 -21 -41 13 -8 82 53 74 67 -9 14 -19 9
-53 -26z"/>
<path d="M1300 4605 c-16 -19 -8 -41 54 -155 59 -109 68 -130 58 -130 -4 0
-56 25 -116 55 -126 63 -170 75 -194 51 -21 -21 -11 -30 68 -56 36 -12 102
-41 147 -66 44 -24 92 -44 106 -44 66 0 61 72 -17 209 -31 55 -56 105 -56 113
0 15 -19 38 -31 38 -4 0 -12 -7 -19 -15z"/>
<path d="M3792 4430 c-72 -66 -136 -120 -141 -120 -5 0 -49 45 -97 100 l-87
100 -868 0 -867 0 -129 -132 c-193 -200 -392 -406 -663 -688 -135 -140 -256
-265 -270 -278 -29 -28 -27 18 -29 -567 -2 -249 -6 -372 -12 -357 -5 13 -6 28
-3 34 4 5 2 20 -4 31 -5 12 -18 52 -27 89 -36 143 -72 105 -105 -112 -17 -115
-20 -123 -35 -70 -6 25 -17 54 -22 65 -8 15 -8 27 3 45 20 37 17 100 -6 138
-18 29 -25 33 -58 30 l-37 -3 1 -175 c0 -146 3 -175 15 -175 10 0 15 16 17 63
2 34 7 62 12 62 12 0 36 -46 45 -87 8 -38 21 -49 39 -34 8 7 20 10 27 9 14 -3
27 32 28 80 1 30 3 32 36 32 32 0 35 -2 35 -31 0 -41 18 -72 37 -65 14 6 15
-24 11 -305 l-6 -312 97 -106 c54 -58 162 -178 240 -266 79 -88 201 -223 271
-300 70 -77 196 -215 279 -307 l152 -168 947 1 947 0 97 137 c106 150 320 445
613 845 105 143 196 269 202 280 10 17 13 189 13 739 l0 718 -217 240 c-120
133 -240 267 -268 299 -27 31 -114 129 -192 217 -79 87 -143 162 -143 165 0 4
9 5 19 2 14 -3 46 20 115 82 102 92 116 94 102 20 -6 -28 -17 -40 -66 -70 -39
-24 -62 -45 -66 -61 -7 -28 1 -54 16 -54 5 0 66 52 135 116 100 94 123 120
114 131 -10 11 -17 10 -45 -6 l-34 -20 -2 27 c-1 15 -1 42 1 60 3 55 -28 39
-167 -88z m-165 -183 c104 -117 227 -254 274 -305 46 -51 106 -118 133 -150
27 -31 115 -129 195 -216 80 -87 158 -173 173 -190 l27 -31 1 -707 0 -708
-133 -182 c-73 -101 -232 -320 -353 -487 -120 -167 -263 -364 -317 -437 l-98
-134 -917 0 -917 1 -320 356 c-176 195 -403 447 -504 560 l-183 205 6 586 c4
323 7 670 7 772 l0 185 301 310 c165 171 375 389 466 485 92 96 195 203 231
237 l64 63 837 0 837 -1 190 -212z m-3221 -1592 c8 -32 -1 -55 -21 -55 -11 0
-15 11 -15 40 0 46 25 57 36 15z m164 -67 c0 -18 -5 -28 -15 -28 -16 0 -20 35
-9 65 9 23 24 0 24 -37z"/>
<path d="M1565 4144 c-132 -141 -294 -311 -360 -378 -66 -67 -181 -187 -256
-267 l-136 -144 -7 -737 -7 -737 138 -153 c76 -85 206 -230 288 -323 83 -93
179 -201 215 -240 36 -38 97 -106 135 -150 38 -44 96 -108 129 -142 l59 -63
862 0 863 0 17 28 c27 41 699 968 781 1078 l54 71 0 677 0 678 -107 121 c-181
205 -358 404 -518 582 -83 94 -189 212 -234 263 l-82 92 -797 -1 -797 0 -240
-255z m1850 158 c16 -20 83 -97 150 -171 66 -74 140 -158 165 -187 25 -29 86
-98 135 -152 50 -54 117 -130 151 -168 33 -38 98 -111 145 -163 106 -118 125
-143 123 -158 -1 -7 -2 -148 -3 -313 l-1 -300 -200 0 -200 0 0 -205 0 -205
-145 0 -145 0 -2 -197 -3 -198 -148 0 -147 0 0 -212 0 -213 -176 0 -176 0 7
-64 6 -65 -46 -21 c-61 -28 -95 -28 -133 0 -26 19 -39 22 -94 18 -34 -3 -71
-8 -80 -13 -17 -7 -18 35 -18 804 l0 811 510 0 510 0 0 35 0 35 -510 0 -510 0
0 185 0 185 -35 0 -35 0 0 -185 0 -185 -465 0 -465 0 0 -35 0 -35 463 -2 462
-3 3 -828 c1 -455 -1 -827 -5 -827 -4 0 -26 9 -50 21 -73 35 -111 35 -163 0
-48 -33 -86 -38 -139 -20 l-31 11 0 79 0 79 -165 0 -165 0 0 215 0 214 -137 3
-138 3 -3 202 -2 202 -143 3 -142 3 -3 198 -2 197 -182 0 -181 0 6 325 5 325
148 157 c82 87 259 273 394 413 135 140 283 297 329 348 l85 92 780 0 781 0
30 -38z m865 -1702 l0 -50 -110 0 -110 0 0 -190 0 -190 -145 0 -145 0 0 -200
0 -200 -145 0 -145 0 0 -225 0 -225 -175 0 -175 0 0 -225 0 -225 -570 0 -570
0 0 210 0 210 -165 0 -165 0 0 225 0 225 -145 0 -145 0 0 200 0 200 -145 0
-145 0 0 195 0 195 -110 0 -110 0 0 55 0 55 163 -2 162 -3 3 -197 2 -198 145
0 145 0 0 -205 0 -205 135 0 135 0 0 -215 0 -215 166 -2 166 -3 -1 -238 c0
-217 1 -237 17 -237 9 0 206 7 437 15 231 8 429 15 441 15 16 0 20 5 18 28 -2
15 -5 120 -7 235 l-4 207 174 0 173 0 0 215 0 215 150 0 150 0 0 195 0 195
145 0 145 0 0 205 0 205 180 0 180 0 0 -50z m-4 -94 c1 0 4 -111 7 -245 l6
-244 -196 -271 c-343 -473 -401 -553 -412 -575 -20 -36 -31 -23 -31 34 0 30
-4 55 -9 55 -12 0 -19 -118 -8 -129 8 -8 -45 -90 -135 -208 l-40 -53 -144 0
-144 0 0 205 0 205 173 2 172 3 2 220 2 220 140 3 141 3 2 197 3 197 148 3
147 3 0 188 c0 103 3 190 6 194 5 5 165 -2 170 -7z m-3236 -211 l0 -195 145 0
145 0 0 -200 0 -200 145 0 145 0 0 -225 0 -225 165 0 165 0 0 -85 c0 -69 -3
-85 -15 -85 -11 0 -15 -12 -15 -50 0 -38 4 -50 15 -50 12 0 15 -13 15 -55 0
-54 0 -55 -30 -55 -28 0 -30 2 -30 40 0 29 -4 40 -15 40 -11 0 -15 -11 -15
-40 l0 -40 -43 0 c-38 0 -47 5 -78 42 -35 42 -143 163 -354 398 -245 272 -375
422 -371 429 11 17 9 135 -2 139 -8 2 -12 -17 -12 -65 l0 -68 -70 75 -69 75
-1 298 0 297 90 0 90 0 0 -195z m1733 -1004 c30 -27 80 -27 132 -1 22 11 41
20 42 20 2 0 3 -26 3 -57 l0 -58 -43 -17 c-57 -24 -96 -23 -124 4 -27 26 -124
37 -172 20 l-31 -11 0 48 c0 46 2 49 38 64 51 22 126 16 155 -12z m-308 -25
c45 -27 46 -28 43 -74 -3 -44 -5 -47 -32 -50 -18 -2 -59 10 -108 33 -90 43
-110 42 -184 -5 -26 -16 -52 -30 -56 -30 -4 0 -8 27 -8 61 l0 61 33 -9 c59
-14 116 -6 150 23 26 22 38 25 73 21 24 -2 64 -17 89 -31z m323 -106 c29 -22
36 -23 79 -12 27 6 56 14 66 17 15 6 17 1 17 -41 0 -48 -1 -49 -43 -66 -56
-24 -96 -23 -124 3 -29 29 -104 36 -161 16 l-43 -15 3 57 3 56 44 11 c58 14
119 4 159 -26z m-458 15 c55 -32 96 -47 135 -50 l40 -3 3 -61 c3 -59 2 -61
-21 -61 -39 0 -89 20 -130 52 -59 46 -100 47 -171 4 -32 -20 -60 -36 -62 -36
-2 0 -4 22 -4 48 0 44 3 50 33 65 17 9 48 26 67 37 41 24 76 25 110 5z m10
-133 c15 -15 47 -34 71 -41 86 -26 86 -30 3 -30 -44 -1 -129 -4 -187 -8 -131
-7 -139 4 -46 66 76 51 117 54 159 13z m438 3 c44 -30 73 -31 129 -6 23 11 44
17 47 13 11 -11 6 -63 -6 -67 -7 -2 -93 -5 -191 -7 l-178 -3 3 34 c3 29 8 36
38 47 59 21 117 17 158 -11z"/>
<path d="M2025 4221 c-29 -12 -163 -164 -158 -178 3 -8 24 -13 59 -13 35 0 69
-8 99 -22 48 -23 52 -31 90 -163 26 -90 74 -174 115 -201 41 -27 185 -64 253
-64 43 0 47 -2 47 -23 0 -28 -35 -63 -72 -72 -40 -10 -34 -23 10 -21 34 0 39
5 60 46 12 25 22 51 22 58 0 6 6 12 14 12 7 0 28 3 45 6 45 9 40 -9 -19 -67
-27 -27 -43 -49 -35 -49 8 0 17 -11 21 -25 8 -34 22 -23 16 13 -3 20 4 37 22
59 14 17 30 41 35 55 6 17 22 28 53 37 58 18 111 50 183 111 33 28 107 75 164
103 98 49 108 52 180 52 42 0 112 -4 156 -8 l80 -9 -68 69 c-75 76 -97 126
-97 215 0 29 -4 48 -10 46 -6 -2 -27 -26 -48 -53 -72 -95 -186 -135 -466 -161
-151 -15 -190 -16 -255 -5 -209 34 -293 70 -322 135 -26 60 -57 96 -95 112
-37 16 -50 16 -79 5z m93 -43 c7 -6 27 -38 44 -71 28 -51 59 -82 116 -113 1 0
9 -34 18 -75 18 -86 60 -159 110 -190 31 -19 51 -22 162 -23 120 -1 130 0 184
27 65 32 89 60 129 155 l28 67 85 17 c47 10 96 22 107 29 24 12 34 3 45 -38
11 -43 -3 -71 -43 -83 -63 -20 -156 -76 -249 -149 -69 -55 -103 -75 -158 -92
-143 -44 -330 -35 -431 19 -42 23 -55 37 -82 92 -18 36 -42 100 -52 144 -12
47 -29 88 -43 103 -30 32 -102 63 -146 63 l-35 0 40 43 c21 23 45 52 53 63 24
34 84 40 118 12z m1182 -179 c7 -13 28 -41 48 -61 20 -21 34 -40 31 -42 -2 -2
-29 0 -59 6 -30 5 -76 8 -102 5 -46 -4 -47 -4 -41 23 3 16 -2 40 -11 58 -16
30 -15 31 17 51 17 11 46 34 62 51 l30 31 6 -48 c4 -27 12 -60 19 -74z m-936
-27 c46 -16 49 -20 65 -72 32 -102 64 -130 147 -130 66 0 106 23 183 106 51
57 74 74 94 74 35 0 34 -13 -4 -89 -32 -64 -69 -100 -132 -126 -42 -17 -212
-21 -266 -5 -68 19 -122 94 -135 184 -4 27 -10 55 -13 62 -6 17 -1 17 61 -4z
m106 -52 c23 -56 49 -80 85 -80 32 0 57 9 160 56 22 10 44 20 49 23 22 10 -69
-91 -99 -109 -48 -30 -144 -28 -172 3 -26 28 -38 52 -51 100 -13 47 9 53 28 7z
m185 17 l100 1 -75 -35 c-127 -61 -150 -60 -185 7 -21 40 -20 42 23 33 20 -4
82 -7 137 -6z"/>
<path d="M2014 4136 c-9 -24 3 -47 21 -40 18 7 16 45 -2 52 -7 2 -16 -3 -19
-12z"/>
<path d="M2890 3509 c-18 -32 -2 -429 17 -436 8 -3 22 1 30 10 13 13 16 40 14
158 -1 78 -4 145 -6 150 -22 35 81 -14 114 -54 13 -17 13 -32 -5 -172 -5 -45
-3 -52 19 -73 18 -17 32 -22 46 -17 21 6 21 11 19 217 -3 187 -5 212 -20 222
-24 15 -38 -2 -45 -53 -3 -22 -7 -41 -8 -41 -11 0 -110 72 -122 89 -18 27 -39
27 -53 0z"/>
<path d="M2231 3478 c-4 -13 -10 -28 -12 -35 -3 -7 -20 -1 -48 18 -76 52 -76
52 -76 -176 0 -193 1 -200 20 -200 19 0 20 8 23 158 1 86 6 157 10 157 11 0
55 -31 70 -48 8 -11 12 -55 12 -137 0 -67 3 -125 6 -128 4 -3 15 -2 26 4 18
10 20 20 18 132 -2 67 -2 127 -1 133 0 6 16 18 35 26 l34 17 6 -37 c3 -20 6
-92 6 -160 0 -122 0 -123 23 -120 22 3 22 4 23 200 2 221 -2 236 -52 195 -16
-13 -39 -29 -52 -36 -24 -13 -27 -9 -34 33 -4 29 -27 31 -37 4z"/>
<path d="M1570 3464 c-74 -32 -119 -101 -127 -195 -5 -46 -2 -64 16 -96 41
-72 142 -115 207 -88 60 25 67 86 8 70 -16 -4 -48 -8 -71 -9 -50 -1 -78 22
-95 75 -21 73 36 165 115 184 24 6 28 12 25 39 -4 37 -26 43 -78 20z"/>
<path d="M3305 3466 c-101 -47 -148 -195 -98 -307 26 -57 52 -79 113 -95 61
-16 137 0 176 37 53 50 69 208 29 293 -30 63 -153 104 -220 72z m128 -77 c35
-19 55 -130 34 -189 -23 -65 -113 -101 -163 -65 -29 20 -54 76 -54 121 0 49
35 121 68 139 28 15 80 12 115 -6z"/>
<path d="M2744 3445 c-4 -9 -1 -64 5 -123 6 -59 11 -137 11 -173 0 -79 17
-104 50 -74 24 21 25 55 9 224 -14 160 -15 161 -45 161 -13 0 -27 -7 -30 -15z"/>
<path d="M1867 3422 c-25 -28 -52 -96 -88 -225 -30 -109 -31 -119 -16 -134 24
-24 42 -3 57 67 l13 60 67 0 66 0 17 -54 c18 -56 38 -74 57 -52 7 10 8 27 0
59 -5 25 -7 53 -4 62 4 9 -2 25 -13 38 -11 12 -30 51 -42 87 -12 36 -28 76
-37 88 -18 27 -55 29 -77 4z m61 -108 c12 -30 20 -59 17 -64 -4 -7 -83 -3 -93
5 -5 4 41 115 47 115 3 0 16 -25 29 -56z"/>
<path d="M1090 3325 l0 -55 -75 0 c-60 0 -75 -3 -75 -15 0 -12 15 -15 75 -15
l75 0 0 -80 c0 -64 3 -80 15 -80 12 0 15 16 15 80 l0 80 70 0 c56 0 70 3 70
15 0 12 -14 15 -70 15 l-70 0 0 55 c0 42 -3 55 -15 55 -12 0 -15 -13 -15 -55z"/>
<path d="M1186 3331 c-48 -50 -30 -64 21 -17 27 24 35 38 28 45 -8 8 -22 -1
-49 -28z"/>
<path d="M1000 3351 c0 -5 12 -24 26 -41 35 -41 56 -25 25 19 -21 29 -51 42
-51 22z"/>
<path d="M3960 3286 l0 -56 -75 0 c-60 0 -75 -3 -75 -15 0 -12 15 -15 75 -15
l75 0 0 -80 c0 -47 4 -80 10 -80 6 0 10 33 10 80 l0 80 75 0 c60 0 75 3 75 15
0 12 -15 15 -75 15 l-75 0 0 49 c0 28 -4 53 -10 56 -6 4 -10 -15 -10 -49z"/>
<path d="M3866 3312 c-9 -15 51 -78 63 -67 7 7 2 20 -15 43 -26 32 -39 39 -48
24z"/>
<path d="M4051 3289 c-22 -20 -30 -34 -23 -41 11 -11 85 49 76 63 -8 14 -17
11 -53 -22z"/>
<path d="M1016 3175 c-38 -50 -22 -66 20 -20 31 33 37 55 15 55 -5 0 -21 -16
-35 -35z"/>
<path d="M1146 3202 c-3 -5 14 -28 38 -51 57 -55 75 -37 20 20 -39 40 -49 45
-58 31z"/>
<path d="M3882 3129 c-21 -24 -29 -40 -22 -44 21 -13 81 59 63 75 -4 4 -23
-10 -41 -31z"/>
<path d="M4010 3160 c0 -5 16 -28 37 -50 49 -55 69 -37 22 19 -32 39 -59 53
-59 31z"/>
<path d="M2809 2807 c-57 -31 -90 -93 -91 -171 -1 -67 17 -98 72 -126 60 -31
140 -22 155 18 10 27 -11 36 -55 23 -68 -20 -120 19 -120 91 0 51 35 95 98
123 33 15 40 33 20 53 -17 17 -29 15 -79 -11z"/>
<path d="M1567 2813 c-9 -8 -9 -286 -1 -307 9 -23 31 -20 45 6 8 14 10 54 6
120 -3 54 -3 98 1 98 17 0 91 -53 94 -67 2 -10 -2 -43 -9 -73 -13 -54 -12 -55
13 -78 14 -13 31 -21 38 -19 7 2 12 54 14 159 2 136 0 156 -14 162 -24 9 -34
-2 -34 -40 0 -19 -3 -34 -6 -34 -4 0 -33 18 -66 40 -62 41 -70 45 -81 33z"/>
<path d="M3273 2800 c-14 -6 -23 -18 -23 -30 0 -19 5 -21 48 -19 l47 3 3 -94
c2 -59 -2 -103 -9 -117 -15 -27 -5 -56 18 -51 32 6 43 48 43 162 l0 109 45 -6
c36 -5 47 -3 51 8 13 34 -15 45 -110 44 -50 0 -101 -4 -113 -9z"/>
<path d="M1921 2773 c-101 -50 -119 -208 -29 -263 55 -34 158 -19 158 22 0 18
-4 20 -32 13 -49 -12 -89 -8 -109 11 -27 25 -23 34 14 35 54 1 102 21 102 44
0 14 -6 19 -20 18 -11 -2 -44 -5 -72 -9 -33 -4 -53 -3 -53 3 0 25 48 79 78 88
25 7 32 14 30 30 -4 26 -25 29 -67 8z"/>
<path d="M3063 2783 c-16 -3 -23 -11 -23 -29 0 -21 5 -24 34 -24 22 0 36 -6
40 -16 11 -29 6 -34 -30 -34 -26 0 -43 -8 -65 -29 -38 -38 -39 -82 -3 -118 23
-23 31 -25 73 -20 30 4 53 1 60 -6 8 -8 15 -7 28 5 14 15 14 19 2 34 -10 12
-14 45 -14 110 0 70 -4 97 -15 108 -18 17 -56 26 -87 19z m49 -189 c-4 -31 -7
-35 -30 -32 -56 7 -50 68 7 68 25 0 27 -3 23 -36z"/>
<path d="M3618 2771 c-14 -12 -34 -41 -44 -66 -11 -25 -22 -45 -26 -45 -16 0
-6 -46 20 -95 22 -40 35 -53 68 -64 34 -12 44 -12 70 0 41 20 40 55 -1 51 -47
-4 -75 7 -84 31 -7 19 -3 23 38 37 73 24 70 82 -3 61 -47 -12 -45 4 5 37 42
29 47 66 8 70 -14 2 -36 -6 -51 -17z"/>
<path d="M2214 2769 c-41 -12 -92 -64 -105 -109 -21 -71 29 -169 95 -186 41
-10 132 5 160 27 54 43 60 178 10 231 -16 16 -43 30 -63 34 -20 3 -43 7 -51 9
-8 2 -29 -1 -46 -6z m91 -61 c14 -6 28 -23 31 -37 3 -14 8 -32 10 -40 9 -27
-17 -81 -46 -96 -44 -23 -78 -19 -111 14 -42 42 -40 92 5 137 36 36 67 42 111
22z"/>
<path d="M1905 2382 c-62 -39 -94 -100 -95 -182 0 -82 59 -139 149 -143 45 -1
94 26 89 51 -4 18 -25 20 -88 7 -30 -6 -39 -3 -63 20 -22 23 -27 37 -27 76 0
57 31 101 86 121 29 10 34 17 32 38 -4 32 -41 38 -83 12z"/>
<path d="M2887 2363 c-4 -3 -7 -15 -7 -25 0 -23 -14 -22 -69 2 -80 37 -79 39
-83 -127 -4 -162 1 -190 32 -173 18 10 20 22 20 130 0 77 4 120 10 120 6 0 29
-9 50 -20 l40 -20 0 -83 c0 -122 11 -147 47 -112 12 13 14 35 12 108 l-4 92
38 19 c21 10 41 16 43 13 3 -3 8 -60 11 -127 5 -92 9 -123 20 -127 28 -11 36
15 35 109 -2 223 -1 218 -18 225 -8 3 -29 -4 -45 -16 -16 -12 -42 -24 -58 -27
-24 -5 -29 -2 -35 20 -6 25 -25 34 -39 19z"/>
<path d="M2117 2313 c-15 -134 38 -240 127 -257 49 -9 82 7 106 54 18 35 20
55 18 143 -3 94 -4 102 -23 102 -18 0 -20 -8 -25 -106 -6 -119 -15 -139 -65
-139 -57 0 -85 60 -85 183 0 64 -1 67 -24 67 -21 0 -24 -6 -29 -47z"/>
<path d="M3248 2324 c-21 -15 -47 -46 -58 -69 -56 -115 15 -214 148 -203 59 5
95 29 74 50 -9 9 -23 9 -59 0 -40 -9 -53 -8 -82 6 -54 26 -49 39 19 45 63 5
114 30 107 50 -4 13 -15 13 -116 1 l-63 -7 15 29 c21 40 57 72 87 76 17 2 25
9 25 23 0 32 -52 31 -97 -1z"/>
<path d="M1904 1928 c-9 -14 -13 -236 -6 -291 4 -32 8 -38 26 -35 20 3 21 10
24 121 3 131 3 131 62 84 33 -25 37 -52 18 -121 -11 -40 -10 -47 7 -66 10 -11
28 -20 39 -18 19 3 21 11 24 103 2 55 0 128 -3 163 -5 51 -10 62 -25 62 -19 0
-30 -19 -30 -51 0 -27 -8 -24 -68 21 -59 45 -58 45 -68 28z"/>
<path d="M2777 1934 c-4 -4 -7 -69 -7 -145 0 -81 -4 -140 -10 -144 -5 -3 -10
-17 -10 -30 0 -24 0 -24 98 -22 53 1 104 0 112 -3 18 -6 27 37 10 54 -6 6 -43
11 -82 12 l-70 0 1 110 c1 60 -2 122 -7 138 -8 30 -23 42 -35 30z"/>
<path d="M2245 1874 c-24 -24 -13 -38 31 -44 30 -4 40 -10 42 -26 3 -18 -3
-22 -44 -27 -53 -6 -81 -28 -90 -74 -5 -27 -1 -37 25 -64 29 -29 36 -31 78
-26 27 3 54 0 65 -6 13 -9 21 -8 30 1 10 10 9 18 -4 40 -13 21 -14 37 -8 72
13 65 -3 142 -34 162 -20 14 -74 8 -91 -8z m75 -163 c0 -36 -12 -51 -39 -51
-26 0 -51 16 -51 31 0 18 34 39 61 39 22 0 29 -5 29 -19z"/>
<path d="M4130 2415 c0 -33 4 -45 15 -45 11 0 15 12 15 45 0 33 -4 45 -15 45
-11 0 -15 -12 -15 -45z"/>
<path d="M4210 2300 c0 -38 4 -50 15 -50 11 0 15 12 15 50 0 38 -4 50 -15 50
-11 0 -15 -12 -15 -50z"/>
<path d="M4210 2030 c0 -38 4 -50 15 -50 11 0 15 12 15 50 0 38 -4 50 -15 50
-11 0 -15 -12 -15 -50z"/>
<path d="M4087 2063 c-4 -3 -7 -46 -7 -95 0 -72 3 -88 15 -88 12 0 15 17 15
95 0 87 -5 107 -23 88z"/>
<path d="M3900 1950 c0 -47 3 -60 15 -60 12 0 15 13 15 60 0 47 -3 60 -15 60
-12 0 -15 -13 -15 -60z"/>
<path d="M4030 1831 c0 -57 3 -71 15 -71 13 0 15 12 13 67 -2 42 -8 68 -15 71
-10 3 -13 -15 -13 -67z"/>
<path d="M3710 1570 c0 -100 3 -120 15 -120 13 0 15 20 15 120 0 100 -2 120
-15 120 -12 0 -15 -20 -15 -120z"/>
<path d="M3890 1625 c0 -51 3 -65 15 -65 12 0 15 14 15 65 0 51 -3 65 -15 65
-12 0 -15 -14 -15 -65z"/>
<path d="M3560 1535 c0 -37 4 -65 10 -65 6 0 10 28 10 65 0 37 -4 65 -10 65
-6 0 -10 -28 -10 -65z"/>
<path d="M3840 1499 c0 -66 24 -62 28 4 2 37 0 47 -12 47 -12 0 -16 -12 -16
-51z"/>
<path d="M3719 1368 c0 -2 -2 -22 -4 -45 -2 -31 1 -43 11 -43 10 0 14 13 14
45 0 25 -4 45 -10 45 -5 0 -10 -1 -11 -2z"/>
<path d="M3380 1190 c0 -29 4 -40 15 -40 11 0 15 11 15 40 0 29 -4 40 -15 40
-11 0 -15 -11 -15 -40z"/>
<path d="M3450 1165 c0 -37 4 -65 10 -65 6 0 10 28 10 65 0 37 -4 65 -10 65
-6 0 -10 -28 -10 -65z"/>
<path d="M3560 1130 c0 -27 5 -50 10 -50 6 0 10 23 10 50 0 28 -4 50 -10 50
-5 0 -10 -22 -10 -50z"/>
<path d="M3260 1080 c0 -73 3 -90 15 -90 12 0 15 17 15 90 0 73 -3 90 -15 90
-12 0 -15 -17 -15 -90z"/>
<path d="M3390 955 c0 -49 3 -66 13 -62 8 2 12 24 12 62 0 38 -4 60 -12 63
-10 3 -13 -14 -13 -63z"/>
<path d="M979 2435 c-5 -50 1 -150 10 -153 7 -2 11 23 11 77 0 47 -4 81 -10
81 -5 0 -10 -2 -11 -5z"/>
<path d="M880 2335 c0 -50 4 -85 10 -85 6 0 10 35 10 85 0 50 -4 85 -10 85 -6
0 -10 -35 -10 -85z"/>
<path d="M910 2105 c0 -60 3 -75 15 -75 12 0 15 15 15 75 0 60 -3 75 -15 75
-12 0 -15 -15 -15 -75z"/>
<path d="M1060 1980 c0 -38 4 -50 15 -50 11 0 15 12 15 50 0 38 -4 50 -15 50
-11 0 -15 -12 -15 -50z"/>
<path d="M1220 1955 c0 -51 3 -65 15 -65 12 0 15 14 15 65 0 51 -3 65 -15 65
-12 0 -15 -14 -15 -65z"/>
<path d="M1100 1935 c0 -51 3 -65 15 -65 12 0 15 14 15 65 0 51 -3 65 -15 65
-12 0 -15 -14 -15 -65z"/>
<path d="M1140 1680 c0 -56 3 -70 15 -70 12 0 15 14 15 70 0 56 -3 70 -15 70
-12 0 -15 -14 -15 -70z"/>
<path d="M1280 1655 c0 -33 4 -45 15 -45 11 0 15 12 15 45 0 33 -4 45 -15 45
-11 0 -15 -12 -15 -45z"/>
<path d="M1550 1565 c0 -51 3 -65 15 -65 12 0 15 14 15 65 0 51 -3 65 -15 65
-12 0 -15 -14 -15 -65z"/>
<path d="M1260 1560 c0 -29 4 -40 15 -40 11 0 15 11 15 40 0 29 -4 40 -15 40
-11 0 -15 -11 -15 -40z"/>
<path d="M1430 1450 c0 -53 3 -71 13 -67 8 2 12 25 12 67 0 42 -4 65 -12 68
-10 3 -13 -15 -13 -68z"/>
<path d="M1530 1281 c0 -48 3 -61 15 -61 13 0 15 11 13 57 -4 81 -28 85 -28 4z"/>
<path d="M1662 1143 c2 -52 6 -68 18 -68 12 0 15 14 15 65 0 54 -3 65 -18 68
-16 3 -18 -3 -15 -65z"/>
<path d="M1780 1135 c0 -48 2 -55 20 -55 18 0 20 7 20 55 0 48 -2 55 -20 55
-18 0 -20 -7 -20 -55z"/>
<path d="M981 4283 c-21 -18 -22 -22 -11 -63 13 -49 78 -182 117 -242 25 -37
57 -50 66 -25 2 6 -10 38 -27 70 l-31 59 45 39 c51 44 65 47 100 19 31 -24 59
-25 67 -3 4 11 -3 24 -23 39 -16 13 -39 33 -51 44 -12 12 -27 20 -35 18 -7 -2
-41 9 -74 25 -87 38 -115 42 -143 20z m100 -64 c27 -12 49 -25 49 -28 0 -10
-59 -65 -64 -60 -5 5 -46 98 -46 105 0 7 11 4 61 -17z"/>
<path d="M4240 4121 c-116 -35 -198 -151 -170 -237 14 -40 44 -64 81 -64 44 0
47 43 4 51 -27 6 -50 49 -41 82 8 32 26 34 52 6 26 -30 63 -42 80 -28 23 19
16 33 -31 61 -25 15 -45 31 -45 35 0 5 14 17 30 27 29 17 73 23 114 15 10 -2
23 4 30 14 22 36 -39 58 -104 38z"/>
<path d="M4382 4028 c-7 -7 -12 -21 -12 -32 0 -12 -30 -75 -66 -141 -73 -135
-81 -159 -64 -180 23 -28 65 -16 166 48 55 34 113 69 130 77 17 9 29 24 29 35
0 33 -47 21 -127 -33 -85 -57 -138 -86 -145 -78 -3 3 4 17 15 33 44 63 106
199 106 237 1 41 -12 54 -32 34z"/>
<path d="M730 3890 l0 -49 -72 -3 c-40 -2 -73 -7 -73 -13 0 -5 33 -11 73 -13
l72 -3 0 -79 c0 -64 3 -80 15 -80 12 0 15 16 15 80 l0 80 70 0 c56 0 70 3 70
15 0 12 -14 15 -70 15 l-70 0 0 50 c0 38 -4 50 -15 50 -11 0 -15 -12 -15 -50z"/>
<path d="M646 3922 c-3 -5 7 -24 23 -42 34 -42 52 -24 21 20 -22 30 -35 37
-44 22z"/>
<path d="M830 3902 c-20 -17 -30 -33 -26 -40 5 -8 19 -2 46 20 21 18 36 36 34
40 -8 13 -18 9 -54 -20z"/>
<path d="M661 3746 c-18 -19 -30 -39 -27 -45 11 -17 19 -13 50 25 39 49 20 65
-23 20z"/>
<path d="M786 3772 c-3 -5 14 -28 38 -51 57 -55 75 -37 20 20 -39 40 -49 45
-58 31z"/>
<path d="M4574 3714 c-63 -34 -217 -134 -226 -148 -4 -6 -6 -15 -5 -21 7 -21
37 -15 78 14 23 17 48 31 55 31 7 0 26 -17 43 -38 l30 -38 -24 -40 c-14 -21
-25 -47 -25 -56 0 -31 23 -32 47 -2 13 16 33 40 45 54 12 14 22 34 24 45 1 11
18 52 38 92 38 76 43 102 24 121 -19 19 -51 14 -104 -14z m56 -39 c0 -3 -12
-29 -26 -57 l-26 -52 -24 29 c-13 17 -24 33 -24 36 0 3 19 15 43 26 46 22 57
26 57 18z"/>
<path d="M245 3539 c-4 -5 -18 -14 -31 -19 l-25 -10 5 -146 c2 -80 8 -150 13
-155 16 -16 31 13 35 65 3 49 3 49 49 62 59 17 75 37 84 100 6 46 4 54 -20 82
-22 26 -34 32 -65 32 -21 0 -42 -5 -45 -11z m73 -51 c16 -16 15 -60 0 -80 -7
-9 -26 -18 -43 -20 -28 -3 -30 -1 -33 35 -5 59 42 99 76 65z"/>
<path d="M491 3527 c-19 -23 -39 -80 -65 -184 -30 -118 -32 -141 -10 -150 21
-8 31 10 39 69 4 26 11 51 16 54 5 3 29 2 53 -1 42 -7 45 -9 51 -44 8 -49 19
-65 40 -57 15 5 16 15 10 69 -4 34 -11 67 -17 74 -5 6 -18 41 -28 78 -26 92
-60 127 -89 92z m43 -103 c4 -19 10 -42 13 -50 4 -11 -2 -13 -28 -8 -19 4 -35
8 -36 9 -7 5 30 94 37 90 4 -3 11 -21 14 -41z"/>
<path d="M4745 3385 c-33 -35 -55 -87 -55 -133 0 -65 58 -132 114 -132 35 0
76 24 76 45 0 20 -20 29 -33 16 -18 -18 -66 -12 -89 11 l-23 23 42 7 c57 9 83
25 83 50 0 16 -4 19 -22 14 -13 -3 -40 -9 -60 -12 -34 -6 -38 -4 -38 14 0 28
47 82 72 82 14 0 19 6 16 23 -5 37 -44 34 -83 -8z"/>
<path d="M200 3156 c-12 -33 -13 -325 -1 -345 7 -10 13 -11 30 -1 12 6 34 11
49 10 54 -4 62 -1 62 24 0 23 -5 25 -47 28 l-48 3 -5 142 c-5 148 -18 195 -40
139z"/>
<path d="M450 3108 c-11 -18 -25 -51 -31 -73 -6 -22 -19 -74 -30 -117 -23 -84
-22 -121 2 -126 16 -3 39 53 39 96 0 28 7 31 60 23 43 -6 44 -8 55 -51 8 -34
16 -45 30 -45 21 0 22 9 12 100 -5 43 -58 187 -77 210 -19 23 -39 18 -60 -17z
m65 -139 c-5 -8 -52 -3 -64 7 -2 1 5 24 15 49 l18 47 18 -47 c10 -25 16 -51
13 -56z"/>
<path d="M4787 3028 c-2 -7 -2 -56 1 -109 3 -61 1 -103 -6 -115 -10 -17 -11
-17 -12 7 0 48 -32 168 -47 181 -12 10 -18 9 -28 -5 -15 -21 -33 -111 -42
-211 -5 -56 -4 -68 8 -64 8 3 18 27 22 57 7 41 12 51 24 47 8 -3 19 -6 24 -6
5 0 9 -12 9 -27 0 -41 15 -60 33 -44 12 9 16 9 19 0 2 -7 10 -9 16 -5 8 5 12
41 12 108 0 91 2 99 16 87 13 -11 15 -26 9 -88 -5 -58 -3 -80 8 -95 14 -19 14
-19 23 0 14 29 6 296 -9 291 -6 -2 -14 -14 -17 -28 l-6 -24 -18 28 c-20 29
-32 34 -39 15z m-68 -162 c-14 -16 -22 1 -14 31 l8 28 7 -25 c4 -14 3 -29 -1
-34z"/>
<path d="M4504 3005 c-3 -8 1 -36 9 -62 9 -26 21 -82 27 -123 17 -115 50 -133
69 -37 34 165 39 203 30 212 -17 17 -28 -9 -40 -90 -6 -44 -15 -84 -19 -88 -3
-4 -12 25 -19 65 -13 73 -35 138 -46 138 -3 0 -8 -7 -11 -15z"/>
<path d="M202 2734 c-21 -14 -22 -22 -22 -163 0 -101 4 -151 12 -159 7 -7 29
-12 49 -12 52 0 79 35 79 102 0 27 -5 59 -12 71 -6 12 -12 47 -13 77 -3 92
-37 124 -93 84z m58 -69 c0 -13 -7 -30 -15 -39 -22 -21 -18 -43 9 -61 33 -22
39 -41 25 -82 -9 -29 -15 -34 -37 -31 -27 3 -27 3 -30 99 -3 105 8 152 33 143
8 -3 15 -17 15 -29z"/>
<path d="M4587 2639 c-22 -13 -53 -73 -68 -132 -8 -34 -8 -54 1 -81 14 -43 62
-86 97 -86 31 0 93 59 93 89 0 12 5 21 10 21 6 0 10 -8 10 -17 0 -27 37 -82
64 -94 28 -13 86 12 86 37 0 20 -27 29 -45 14 -12 -10 -20 -9 -41 4 -34 23
-28 50 13 54 37 4 66 31 53 51 -6 11 -16 12 -49 4 -23 -6 -43 -8 -45 -4 -8 13
32 89 53 101 25 13 28 38 6 47 -33 12 -94 -79 -95 -139 0 -32 -16 -37 -25 -8
-9 29 -39 42 -70 30 -35 -13 -30 -44 8 -48 21 -3 27 -9 27 -28 0 -26 -32 -64
-53 -64 -27 0 -57 45 -57 86 0 51 37 116 70 124 34 8 34 44 0 47 -14 2 -33 -2
-43 -8z"/>
<path d="M4577 2274 c-4 -4 -7 -72 -7 -152 l0 -144 31 6 c17 3 51 6 75 6 37 0
44 3 44 20 0 16 -7 20 -37 20 -21 0 -43 4 -50 8 -8 5 -13 46 -15 122 -2 94 -6
115 -18 118 -9 1 -19 0 -23 -4z"/>
<path d="M4765 2238 c-2 -7 -1 -67 3 -133 6 -111 9 -120 27 -120 18 0 20 8 23
70 4 106 -9 189 -31 193 -9 2 -19 -2 -22 -10z"/>
<path d="M370 2180 l0 -50 -75 0 c-60 0 -75 -3 -75 -15 0 -12 15 -15 75 -15
l75 0 0 -80 c0 -64 3 -80 15 -80 12 0 15 16 15 80 l0 80 70 0 c56 0 70 3 70
15 0 12 -14 15 -70 15 l-70 0 0 50 c0 38 -4 50 -15 50 -11 0 -15 -12 -15 -50z"/>
<path d="M286 2211 c-5 -7 1 -23 15 -39 13 -15 25 -29 27 -31 1 -3 7 0 13 6 8
8 2 20 -19 43 -20 24 -31 30 -36 21z"/>
<path d="M466 2188 c-27 -22 -34 -34 -27 -41 8 -8 21 -1 47 25 45 45 30 58
-20 16z"/>
<path d="M426 2061 c-9 -14 68 -96 82 -87 8 5 0 21 -25 52 -38 45 -48 51 -57
35z"/>
<path d="M291 2026 c-22 -23 -29 -36 -21 -41 13 -8 82 53 74 67 -9 14 -19 9
-53 -26z"/>
<path d="M341 1780 c-40 -44 -78 -80 -86 -80 -7 0 -19 -7 -26 -16 -11 -14 -6
-22 37 -62 27 -26 56 -58 65 -71 9 -15 20 -21 27 -17 23 14 12 55 -26 95 l-37
39 72 76 c69 71 91 116 59 116 -7 0 -46 -36 -85 -80z"/>
<path d="M462 1619 c-58 -67 -92 -115 -88 -124 8 -23 30 -8 93 63 87 99 121
146 116 160 -9 25 -31 8 -121 -99z"/>
<path d="M594 1665 c-4 -8 2 -27 11 -42 17 -26 17 -27 -7 -47 -50 -41 -146
-159 -141 -172 3 -8 9 -14 14 -14 15 0 97 80 135 132 20 26 41 48 47 48 6 0
21 -9 33 -21 41 -39 62 6 22 48 -20 21 -20 24 -5 41 13 14 14 21 5 30 -9 9
-16 8 -30 -5 -17 -15 -19 -15 -36 0 -23 21 -41 22 -48 2z"/>
<path d="M694 1496 c-66 -66 -114 -149 -114 -198 0 -32 41 -68 79 -68 14 0 40
8 56 19 47 28 167 167 163 188 -6 28 -39 16 -72 -25 -90 -112 -166 -156 -166
-97 0 40 27 84 91 152 102 106 67 133 -37 29z"/>
<path d="M4271 1513 c-66 -34 -103 -155 -68 -223 17 -35 74 -70 112 -70 41 0
81 30 72 55 -7 17 -9 17 -74 -1 -16 -4 -29 1 -47 20 -50 49 -27 134 46 172 21
11 28 21 26 37 -4 28 -25 31 -67 10z"/>
<path d="M4426 1491 c-3 -5 -3 -66 1 -136 5 -97 10 -128 21 -132 27 -11 33 20
27 136 -4 62 -9 120 -12 127 -6 16 -29 19 -37 5z"/>
<path d="M844 1342 c-27 -31 -75 -85 -107 -119 -33 -34 -56 -67 -52 -72 12
-20 37 -11 72 26 28 31 36 35 43 23 14 -21 12 -39 -6 -91 -19 -51 -13 -82 12
-77 18 3 44 64 51 121 4 31 9 37 30 37 14 0 37 13 54 29 50 50 36 137 -27 170
-20 9 -27 4 -70 -47z m72 -30 c12 -18 3 -55 -15 -66 -13 -9 -51 11 -51 26 0
12 39 58 49 58 4 0 11 -8 17 -18z"/>
<path d="M990 1189 c-74 -30 -131 -103 -132 -171 -1 -112 156 -119 202 -8 9
21 9 34 1 49 -12 22 -53 37 -70 26 -17 -10 -13 -42 5 -49 15 -6 15 -8 -1 -26
-31 -34 -85 -20 -85 21 0 23 45 76 81 94 33 17 71 19 85 5 6 -6 18 -8 27 -4
20 7 22 45 5 62 -14 14 -83 15 -118 1z"/>
<path d="M4097 1153 c-11 -10 -8 -276 3 -293 7 -12 12 -12 22 -2 9 9 12 41 10
115 l-3 101 21 -19 c33 -30 39 -55 27 -114 -9 -47 -8 -54 11 -73 11 -11 25
-17 31 -14 13 9 15 274 2 295 -12 19 -31 4 -31 -25 0 -32 -13 -30 -43 6 -26
30 -38 36 -50 23z"/>
<path d="M3913 1113 c-51 -41 -65 -161 -28 -233 25 -47 87 -55 132 -16 27 23
28 28 28 120 0 83 -3 98 -21 116 -29 29 -83 35 -111 13z m84 -72 c21 -77 -2
-151 -47 -151 -52 0 -66 119 -20 168 25 26 58 18 67 -17z"/>
<path d="M1109 1029 c-30 -35 -75 -86 -102 -115 -47 -51 -55 -84 -19 -84 29 0
206 208 200 236 -6 34 -27 24 -79 -37z"/>
<path d="M1228 940 c-77 -41 -208 -142 -208 -160 0 -33 21 -33 67 1 l46 32 23
-27 24 -27 -26 -39 c-27 -40 -27 -70 0 -70 8 0 23 12 33 26 10 15 28 36 41 49
12 12 22 29 22 37 0 9 11 36 26 61 65 117 45 167 -48 117z m1 -94 c-7 -14 -16
-26 -20 -26 -7 0 -22 31 -17 35 11 8 43 23 46 21 1 -2 -3 -15 -9 -30z"/>
<path d="M3788 708 l-3 -53 -68 0 c-47 0 -67 -4 -67 -12 0 -9 21 -13 70 -13
l70 0 0 -80 c0 -64 3 -80 15 -80 12 0 15 16 15 80 l0 80 76 0 c52 0 74 4 72
11 -2 7 -31 12 -73 13 l-70 1 -3 53 c-2 36 -7 52 -17 52 -10 0 -15 -16 -17
-52z"/>
<path d="M3710 740 c-12 -8 -10 -14 15 -40 46 -49 65 -31 22 22 -16 20 -26 25
-37 18z"/>
<path d="M3890 715 c-19 -19 -31 -38 -27 -41 8 -8 77 43 77 56 0 22 -20 16
-50 -15z"/>
<path d="M1399 703 c0 -5 -1 -28 -2 -53 l-2 -45 -72 -3 c-56 -2 -73 -6 -73
-17 0 -12 16 -15 75 -15 l75 0 0 -80 c0 -47 4 -80 10 -80 6 0 10 33 10 80 l0
80 75 0 c59 0 75 3 75 15 0 11 -17 15 -72 17 l-73 3 -3 53 c-2 28 -7 52 -13
52 -5 0 -9 -3 -10 -7z"/>
<path d="M1306 682 c-3 -4 9 -23 26 -41 22 -23 34 -29 41 -22 8 8 3 20 -18 41
-30 31 -40 36 -49 22z"/>
<path d="M1492 659 c-46 -41 -30 -57 19 -18 21 17 37 35 33 40 -8 14 -16 11
-52 -22z"/>
<path d="M2217 604 c-4 -4 -7 -18 -7 -31 0 -29 -2 -29 -51 4 -34 22 -42 24
-50 12 -5 -8 -9 -85 -9 -172 0 -135 2 -158 16 -164 27 -10 32 15 30 139 0 66
1 121 4 123 3 2 17 -5 30 -15 23 -18 25 -26 30 -132 4 -92 8 -113 20 -113 12
0 16 21 18 114 3 117 10 141 43 141 18 0 19 -9 19 -130 0 -123 1 -130 20 -130
19 0 20 7 20 170 0 145 -2 172 -16 177 -9 3 -26 -5 -43 -21 -30 -29 -41 -32
-41 -13 0 19 -24 49 -33 41z"/>
<path d="M2637 593 c-4 -3 -7 -80 -7 -170 0 -141 2 -164 16 -170 28 -11 35 19
31 135 -2 61 -2 112 2 112 3 0 22 -13 41 -29 l34 -29 -13 -77 c-12 -74 -12
-79 7 -98 12 -11 27 -17 36 -14 14 5 16 30 16 165 0 120 -3 162 -13 171 -18
14 -37 -5 -37 -36 0 -31 -9 -29 -54 12 -40 36 -48 40 -59 28z"/>
<path d="M3855 591 c-5 -9 7 -27 32 -53 52 -52 62 -36 14 21 -27 31 -40 41
-46 32z"/>
<path d="M1670 579 c-35 -14 -59 -38 -81 -81 -60 -118 -13 -235 99 -246 41 -3
53 -1 71 17 30 30 18 55 -23 46 -79 -19 -116 6 -116 79 0 52 30 101 75 123 36
17 44 40 23 61 -14 14 -15 14 -48 1z"/>
<path d="M2376 568 c-3 -13 -6 -57 -6 -99 0 -172 64 -253 161 -203 50 25 69
83 65 196 -3 99 -8 118 -32 118 -22 0 -26 -19 -27 -130 -2 -87 -5 -102 -23
-121 -15 -15 -28 -19 -43 -14 -31 9 -55 101 -48 184 2 37 3 72 0 79 -8 21 -40
14 -47 -10z"/>
<path d="M3720 555 c-23 -23 -31 -38 -24 -45 7 -7 21 2 44 25 23 23 31 38 24
45 -7 7 -21 -2 -44 -25z"/>
<path d="M2932 559 c-18 -7 -20 -15 -16 -66 2 -32 6 -93 8 -136 7 -120 40
-152 112 -108 79 48 118 157 80 225 -36 64 -127 106 -184 85z m99 -65 c42 -21
64 -75 49 -119 -10 -32 -70 -95 -89 -95 -15 0 -21 41 -21 138 0 102 4 106 61
76z"/>
<path d="M3425 561 c-18 -7 -20 -16 -17 -117 5 -177 15 -214 60 -214 66 0 152
97 152 172 0 71 -54 137 -128 158 -42 11 -40 11 -67 1z m110 -82 c40 -35 46
-78 20 -129 -19 -36 -73 -76 -86 -63 -6 6 -13 58 -16 116 l-6 107 26 0 c15 0
41 -13 62 -31z"/>
<path d="M1863 538 c-60 -66 -74 -163 -34 -234 34 -61 80 -77 151 -53 85 30
93 251 10 294 -44 23 -103 19 -127 -7z m109 -45 c18 -10 29 -84 18 -124 -21
-76 -71 -101 -109 -53 -41 52 -39 111 5 164 21 24 31 29 52 24 15 -4 30 -9 34
-11z"/>
<path d="M3235 537 c-32 -50 -92 -265 -81 -293 3 -8 14 -14 23 -12 12 2 21 19
28 56 5 29 13 53 18 53 4 -1 27 -1 52 -1 43 0 44 -1 51 -37 8 -46 21 -64 40
-56 12 4 13 18 8 67 -4 33 -13 70 -19 81 -7 11 -20 46 -29 77 -10 34 -25 63
-38 73 -30 20 -35 19 -53 -8z m54 -101 c6 -22 9 -42 6 -44 -2 -2 -17 -1 -33 3
l-30 6 15 45 c17 50 26 48 42 -10z"/>
<path d="M2835 403 c4 -82 9 -151 11 -155 3 -4 11 -5 19 -2 23 9 28 81 14 196
-11 96 -15 108 -32 108 -19 0 -19 -6 -12 -147z"/>
<path d="M1321 500 c-38 -48 -23 -63 18 -18 32 35 36 44 22 52 -4 3 -22 -12
-40 -34z"/>
<path d="M1450 533 c0 -5 18 -27 39 -51 48 -53 65 -38 20 18 -29 36 -59 53
-59 33z"/>
</g>
</svg>
